<svg width="140" height="174" viewBox="0 0 140 174" fill="none" xmlns="http://www.w3.org/2000/svg">
<path d="M69.7971 36.8742C64.6981 23.8566 58.4539 12.4087 51.388 3.24087L48.889 0L45.6692 2.52368C41.9712 5.41949 27.3679 16.5291 27.2197 16.6441L23.4274 19.5332L26.8559 22.8484C32.6353 28.4371 37.5458 35.6495 41.5199 41.3667C31.0052 36.6915 17.3045 33.0514 5.16642 32.9432L1.2192 32.9093L0 64.3031L4.82289 63.6198C6.91774 63.3221 9.26856 63.1732 11.8147 63.1732C19.9584 63.1732 28.7959 64.7361 36.0706 67.4628C43.7764 70.3518 49.8252 74.5331 53.7321 79.6346C39.6137 99.3031 33.1338 115.575 30.0689 138.64C29.3415 144.905 27.3342 161.759 26.3911 168.681L25.758 173.329H59.8819L59.599 169.06C58.4674 150.48 60.8519 132.422 66.6851 115.386C67.6349 112.605 68.6924 109.851 69.8106 107.145C70.9287 109.851 71.9795 112.612 72.9293 115.386C78.7626 132.422 81.1471 150.48 80.0154 169.06L79.7325 173.329H113.856L113.223 168.681C112.28 161.759 110.273 144.905 109.545 138.64C106.487 115.575 100.001 99.3031 85.8824 79.6346C89.7959 74.5331 95.8447 70.3518 103.544 67.4628C110.812 64.7361 119.656 63.1732 127.8 63.1732C130.346 63.1732 132.697 63.3221 134.792 63.6198L139.614 64.3031L138.395 32.9093L134.448 32.9432C122.303 33.0514 108.602 36.6915 98.0945 41.3667C102.069 35.6495 106.972 28.4438 112.759 22.8484L116.187 19.5332L112.395 16.6441C112.247 16.5359 97.6432 5.41949 93.9452 2.52368L90.7255 0L88.2265 3.24087C81.1605 12.4087 74.9096 23.8498 69.8173 36.8742" fill="#24330D"/>
</svg>
