<svg width="356" height="442" viewBox="0 0 356 442" fill="none" xmlns="http://www.w3.org/2000/svg">
<path d="M158.888 292.115C164.236 276.567 170.536 261.374 177.748 246.708C184.21 259.855 189.963 273.448 194.937 287.324C212.551 336.459 219.55 388.775 216.349 440.877L216.329 441.232L218.83 441.049H284.495C281.882 422.027 278.165 390.598 276.088 372.801C276.048 372.396 275.997 372.001 275.947 371.606C275.906 371.231 275.855 370.847 275.815 370.462C275.724 369.702 275.643 368.983 275.572 368.304C275.248 365.549 274.903 362.835 274.549 360.14C266.314 298.111 249.014 255.003 207.78 199.426C238.024 150.504 315.986 139.555 355.427 145.095H355.447L353.087 84.2718C301.481 84.7478 259.092 101.349 225.698 125.476C242.765 93.4789 265.889 66.9211 296.164 41.6598C296.164 41.6598 258.464 8.65001 248.862 0C219.975 32.2907 195.828 75.6015 177.768 123.399C159.719 75.5914 135.562 32.2907 106.674 0C97.0723 8.65001 59.373 41.6598 59.373 41.6598C89.6378 66.9211 112.762 93.4789 129.839 125.476C96.4443 101.349 54.0554 84.7276 2.44924 84.2617L0.0791016 145.095C39.5206 139.545 117.482 150.494 147.726 199.426C106.543 254.953 89.2428 298.041 80.9878 359.968C80.846 361.001 80.7143 362.045 80.5725 363.088C80.5523 363.331 80.5118 363.574 80.4814 363.817C80.0864 366.957 79.7116 370.168 79.3672 373.409C79.3469 373.632 79.3166 373.865 79.2862 374.088C77.1895 392.077 73.5837 422.473 71.0312 441.039H136.595L139.097 441.222C136.007 390.699 142.429 339.964 158.888 292.105V292.115Z" fill="#ffffff"/>
</svg>
