<svg width="350" height="362" viewBox="0 0 350 362" fill="none" xmlns="http://www.w3.org/2000/svg">
<path d="M149.253 289.337V302.196H131.645V317.006H145.912V328.56H131.645V343.727H150.961V356.116L112.788 356.153C114.159 334.21 113.436 300.882 113.436 300.882V289.328H149.244L149.253 289.337ZM191.941 289.337V302.196H174.333V317.006H188.6V328.56H174.333V343.727H193.649V356.116L155.476 356.153C156.847 334.21 156.124 300.882 156.124 300.882V289.328H191.932L191.941 289.337ZM266.401 356.153C268.382 334.444 267.527 318.536 267.668 305.969C267.706 302.336 267.668 289.337 267.668 289.337H283.85C283.85 289.337 283.803 302.336 283.85 305.969C283.991 318.536 283.137 334.444 285.117 356.153H266.401ZM313.36 289.337H291.19C291.293 291.524 292.739 327.18 290.486 356.162H313.35C328.884 356.162 335.933 345.942 335.933 326.532V319.127C335.933 299.896 328.884 289.337 313.36 289.337ZM318.334 326.438C318.334 338.987 316.532 343.68 311.023 343.68H307.503V302.149H311.023C316.166 302.149 318.334 306.757 318.334 319.033V326.438ZM58.7054 356.153H78.0877V330.024H80.4342C82.5085 330.024 83.4096 330.84 84.0479 334.538C84.6767 337.607 85.1273 342.394 85.7655 346.364C86.3944 350.606 87.1171 354.079 88.3842 356.153H108.123L108.208 354.492C106.406 352.69 105.495 350.071 103.871 341.671C102.52 334.717 99.8071 329.573 95.9307 327.583L95.8368 326.682C102.97 324.064 107.034 318.02 107.034 309.169C107.034 297.428 98.8498 289.337 85.4839 289.337H60.3573C60.4043 290.68 61.5118 324.496 58.696 356.162L58.7054 356.153ZM78.0877 302.759H81.8797C85.7655 302.759 87.746 304.11 87.746 310.436C87.746 316.762 85.6717 319.193 81.5136 319.193H78.0783V302.759H78.0877ZM262.637 356.153C256.818 335.233 253.486 317.241 251.74 305.931C251.271 302.909 249.431 289.337 249.431 289.337H222.118C222.118 289.337 220.278 302.909 219.809 305.931C218.063 317.241 214.74 335.242 208.921 356.153L211.849 356.116L226.107 356.153L228.463 345.003H243.086L245.433 356.153H262.647H262.637ZM231.072 332.37L233.597 317.625L235.765 304.232H236.215L238.196 317.625L240.449 332.37H231.053H231.072ZM34.4986 356.144H44.6544C42.5707 327.358 43.0869 302.946 43.0869 302.946C43.0869 302.946 50.0326 302.712 54.9415 303.782V289.337H34.4986H14.0557V303.782C18.9646 302.712 25.9103 302.946 25.9103 302.946C25.9103 302.946 26.4266 327.368 24.3428 356.144H34.4986Z" fill="#F4F0E6"/>
<path d="M176.929 55.6185C169.203 35.9836 159.742 18.7164 149.036 4.88831L145.25 0L140.372 3.80655C134.769 8.17439 112.642 24.9314 112.418 25.1049L106.672 29.4625L111.867 34.4631C120.623 42.8926 128.063 53.7714 134.085 62.3948C118.153 55.343 97.3947 49.8526 79.0037 49.6893L73.023 49.6382L71.1758 96.9905L78.4832 95.9598C81.6572 95.5108 85.2191 95.2863 89.0769 95.2863C101.416 95.2863 114.806 97.6437 125.828 101.756C137.504 106.114 146.669 112.421 152.588 120.116C131.196 149.782 121.378 174.326 116.735 209.115C115.633 218.565 112.591 243.987 111.162 254.427L110.203 261.438H161.906L161.477 254.998C159.763 226.975 163.376 199.737 172.214 174.04C173.653 169.846 175.255 165.692 176.949 161.61C178.644 165.692 180.236 169.856 181.675 174.04C190.513 199.737 194.126 226.975 192.411 254.998L191.983 261.438H243.686L242.726 254.427C241.297 243.987 238.256 218.565 237.154 209.115C232.52 174.326 222.692 149.782 201.301 120.116C207.23 112.421 216.395 106.114 228.06 101.756C239.072 97.6437 252.473 95.2863 264.812 95.2863C268.67 95.2863 272.231 95.5108 275.405 95.9598L282.713 96.9905L280.866 49.6382L274.885 49.6893C256.484 49.8526 235.725 55.343 219.804 62.3948C225.825 53.7714 233.255 42.9028 242.022 34.4631L247.217 29.4625L241.471 25.1049C241.246 24.9416 219.12 8.17439 213.517 3.80655L208.639 0L204.852 4.88831C194.146 18.7164 184.675 35.9734 176.96 55.6185" fill="#F4F0E6"/>
</svg>
